<mxfile host="app.diagrams.net" modified="2023-12-07T22:28:24.588Z" agent="Mozilla/5.0 (Windows NT 10.0; Win64; x64) AppleWebKit/537.36 (KHTML, like Gecko) Chrome/119.0.0.0 Safari/537.36" etag="cO8wES9CLhc4egMy7c0N" version="22.1.7" type="onedrive">
  <diagram name="Page-1" id="Jddpdbl5l6jvkfbigtly">
    <mxGraphModel grid="0" page="1" gridSize="10" guides="1" tooltips="1" connect="1" arrows="1" fold="1" pageScale="1" pageWidth="827" pageHeight="1169" math="0" shadow="0">
      <root>
        <mxCell id="0" />
        <mxCell id="1" parent="0" />
        <mxCell id="paOqaDrFukgb-r2glPYf-6" style="edgeStyle=orthogonalEdgeStyle;rounded=0;orthogonalLoop=1;jettySize=auto;html=1;exitX=1;exitY=0.75;exitDx=0;exitDy=0;entryX=0;entryY=0.75;entryDx=0;entryDy=0;" edge="1" parent="1" source="paOqaDrFukgb-r2glPYf-1" target="paOqaDrFukgb-r2glPYf-2">
          <mxGeometry relative="1" as="geometry" />
        </mxCell>
        <mxCell id="paOqaDrFukgb-r2glPYf-1" value="Period allocation" style="rounded=1;whiteSpace=wrap;html=1;" vertex="1" parent="1">
          <mxGeometry x="170" y="240" width="120" height="60" as="geometry" />
        </mxCell>
        <mxCell id="paOqaDrFukgb-r2glPYf-7" style="edgeStyle=orthogonalEdgeStyle;rounded=0;orthogonalLoop=1;jettySize=auto;html=1;exitX=1;exitY=0.75;exitDx=0;exitDy=0;entryX=0;entryY=0.75;entryDx=0;entryDy=0;" edge="1" parent="1" source="paOqaDrFukgb-r2glPYf-2" target="paOqaDrFukgb-r2glPYf-3">
          <mxGeometry relative="1" as="geometry" />
        </mxCell>
        <mxCell id="paOqaDrFukgb-r2glPYf-8" style="edgeStyle=orthogonalEdgeStyle;rounded=0;orthogonalLoop=1;jettySize=auto;html=1;exitX=0;exitY=0.25;exitDx=0;exitDy=0;entryX=1;entryY=0.25;entryDx=0;entryDy=0;" edge="1" parent="1" source="paOqaDrFukgb-r2glPYf-2" target="paOqaDrFukgb-r2glPYf-1">
          <mxGeometry relative="1" as="geometry" />
        </mxCell>
        <mxCell id="paOqaDrFukgb-r2glPYf-2" value="Room allocation" style="rounded=1;whiteSpace=wrap;html=1;" vertex="1" parent="1">
          <mxGeometry x="354" y="240" width="120" height="60" as="geometry" />
        </mxCell>
        <mxCell id="paOqaDrFukgb-r2glPYf-9" style="edgeStyle=orthogonalEdgeStyle;rounded=0;orthogonalLoop=1;jettySize=auto;html=1;exitX=0;exitY=0.25;exitDx=0;exitDy=0;entryX=1;entryY=0.25;entryDx=0;entryDy=0;" edge="1" parent="1" source="paOqaDrFukgb-r2glPYf-3" target="paOqaDrFukgb-r2glPYf-2">
          <mxGeometry relative="1" as="geometry" />
        </mxCell>
        <mxCell id="paOqaDrFukgb-r2glPYf-18" style="edgeStyle=orthogonalEdgeStyle;rounded=0;orthogonalLoop=1;jettySize=auto;html=1;entryX=0.5;entryY=1;entryDx=0;entryDy=0;exitX=1;exitY=0.5;exitDx=0;exitDy=0;" edge="1" parent="1" source="paOqaDrFukgb-r2glPYf-3" target="paOqaDrFukgb-r2glPYf-17">
          <mxGeometry relative="1" as="geometry" />
        </mxCell>
        <mxCell id="paOqaDrFukgb-r2glPYf-3" value="Lecturer allocation" style="rounded=1;whiteSpace=wrap;html=1;" vertex="1" parent="1">
          <mxGeometry x="540" y="240" width="120" height="60" as="geometry" />
        </mxCell>
        <mxCell id="paOqaDrFukgb-r2glPYf-10" value="Move on when complete" style="text;html=1;strokeColor=none;fillColor=none;align=center;verticalAlign=middle;whiteSpace=wrap;rounded=0;" vertex="1" parent="1">
          <mxGeometry x="290" y="310" width="60" height="30" as="geometry" />
        </mxCell>
        <mxCell id="paOqaDrFukgb-r2glPYf-12" value="Move on when complete" style="text;html=1;strokeColor=none;fillColor=none;align=center;verticalAlign=middle;whiteSpace=wrap;rounded=0;" vertex="1" parent="1">
          <mxGeometry x="474" y="310" width="60" height="30" as="geometry" />
        </mxCell>
        <mxCell id="paOqaDrFukgb-r2glPYf-13" value="Backtrack on failure" style="text;html=1;strokeColor=none;fillColor=none;align=center;verticalAlign=middle;whiteSpace=wrap;rounded=0;" vertex="1" parent="1">
          <mxGeometry x="480" y="210" width="60" height="30" as="geometry" />
        </mxCell>
        <mxCell id="paOqaDrFukgb-r2glPYf-14" value="Backtrack on failure" style="text;html=1;strokeColor=none;fillColor=none;align=center;verticalAlign=middle;whiteSpace=wrap;rounded=0;" vertex="1" parent="1">
          <mxGeometry x="294" y="210" width="60" height="30" as="geometry" />
        </mxCell>
        <mxCell id="paOqaDrFukgb-r2glPYf-16" style="edgeStyle=orthogonalEdgeStyle;rounded=0;orthogonalLoop=1;jettySize=auto;html=1;entryX=0;entryY=0.5;entryDx=0;entryDy=0;exitX=0.5;exitY=1;exitDx=0;exitDy=0;" edge="1" parent="1" source="paOqaDrFukgb-r2glPYf-15" target="paOqaDrFukgb-r2glPYf-1">
          <mxGeometry relative="1" as="geometry" />
        </mxCell>
        <mxCell id="paOqaDrFukgb-r2glPYf-15" value="Start" style="ellipse;whiteSpace=wrap;html=1;" vertex="1" parent="1">
          <mxGeometry x="40" y="130" width="120" height="80" as="geometry" />
        </mxCell>
        <mxCell id="paOqaDrFukgb-r2glPYf-17" value="End" style="ellipse;whiteSpace=wrap;html=1;" vertex="1" parent="1">
          <mxGeometry x="650" y="110" width="120" height="80" as="geometry" />
        </mxCell>
      </root>
    </mxGraphModel>
  </diagram>
</mxfile>
